<?xml version="1.0" encoding="UTF-8"?>
<svg id="Layer_1" data-name="Layer 1" xmlns="http://www.w3.org/2000/svg" xmlns:xlink="http://www.w3.org/1999/xlink" viewBox="0 0 384 384">
  <defs>
    <style>
      .cls-1 {
        fill: url(#linear-gradient-2);
      }

      .cls-2 {
        fill: #fff;
      }

      .cls-3 {
        fill: #97daf4;
      }

      .cls-4 {
        fill: #fbf7f8;
      }

      .cls-5 {
        stroke: red;
        stroke-miterlimit: 10;
        stroke-width: .25px;
      }

      .cls-5, .cls-6 {
        fill: none;
      }

      .cls-7 {
        fill: #fdfcf8;
      }

      .cls-8 {
        fill: url(#linear-gradient-3);
      }

      .cls-9 {
        fill: url(#linear-gradient);
      }

      .cls-10 {
        fill: url(#linear-gradient-4);
      }

      .cls-11 {
        fill: #faf1f4;
      }

      .cls-12 {
        fill: #012c8b;
      }
    </style>
    <linearGradient id="linear-gradient" x1="160.73" y1="184.54" x2="160.73" y2="244.65" gradientUnits="userSpaceOnUse">
      <stop offset="0" stop-color="#fed8ed"/>
      <stop offset=".14" stop-color="#f6d8ee"/>
      <stop offset=".36" stop-color="#e0d9f1"/>
      <stop offset=".63" stop-color="#bddaf6"/>
      <stop offset=".84" stop-color="#9ddcfb"/>
    </linearGradient>
    <linearGradient id="linear-gradient-2" x1="296.43" y1="183.13" x2="296.43" y2="245.27" xlink:href="#linear-gradient"/>
    <linearGradient id="linear-gradient-3" x1="227.76" y1="184.54" x2="227.76" y2="244.65" xlink:href="#linear-gradient"/>
    <linearGradient id="linear-gradient-4" x1="90.56" y1="180.6" x2="90.56" y2="248.03" xlink:href="#linear-gradient"/>
  </defs>
  <path class="cls-12" d="m136.45,139.57c15.96-25.42,48.8-33.59,80.35-18.46,35.26-4.55,61.7,10.95,72.37,41.38,71.29-4.76,70.3,91.24,6.84,88.04-11.2,13.53-24.37,12.6-36.37,1.83-19.3,15.6-41.79,14.86-61.61-.86-23.63,24.37-57.77,26.85-84.62-1.86-13.55,16.45-36.06,14.78-44.69-7.11-19.35-3.13-26.91-20.43-27.81-37.18-1.1-20.56,12.19-44.54,37.78-38.13,9.23-23.29,30.04-35.06,57.76-27.65Z"/>
  <circle class="cls-5" cx="297.58" cy="201.12" r="9.25"/>
  <circle class="cls-6" cx="297.58" cy="201.12" r="9.25"/>
  <path class="cls-9" d="m157.27,217.68c7.88,1.24,28.77,2.89,33.47-13.19,5.3-18.17-12.77-30.42-28.21-31.19-9.94-.49-17.12,2.38-22.3,7.11-1.17,1.35-2.22,2.79-3.16,4.32-4.81,7.87-6.67,17.9-7.22,26.78-.95,15.54,7.73,30.48,19.77,34.83,16.11,5.83,28.74,1.68,35.8-4.62,3.71-4.3,5.01-9.12,3.34-12.36-.54-1.03-1.07-1.9-1.62-2.66-5.95-8.29-12.57-1.22-20.28-.31-9.26,1.09-11.93-2.57-12.59-5.61-.39-1.78,1.2-3.38,3-3.1Zm6.17-25.95c4.66-.12,8.52,2.68,8.61,6.26.1,3.58-3.61,6.58-8.27,6.7-4.66.12-8.52-2.68-8.61-6.26-.09-3.58,3.61-6.58,8.27-6.7Z"/>
  <path class="cls-1" d="m328.92,201.03c-.74-20.41-16.21-29.57-36.49-29.57-8.45,0-14.46,2.71-18.75,6.7-2.18,2.64-3.82,5.63-5.04,8.68-2.92,7.29-3.54,14.88-3.98,18.66-.99,8.54-3.83,46.77,16.08,44.29,3.82-.47,6.65-1.75,8.74-3.48,3.99-5.56,3.39-13.48,2.69-17.68-.21-1.26.92-2.31,2.17-2.04,13.24,2.85,35.31-5.42,34.58-25.56Zm-31.34,9.34c-5.1,0-9.24-4.14-9.24-9.25s4.14-9.24,9.24-9.24,9.25,4.14,9.25,9.24-4.14,9.25-9.25,9.25Z"/>
  <path class="cls-8" d="m224.3,217.68c7.88,1.24,28.77,2.89,33.47-13.19,5.3-18.17-12.76-30.42-28.21-31.19-9.94-.49-17.12,2.38-22.3,7.11-1.17,1.35-2.22,2.79-3.16,4.32-4.81,7.87-6.67,17.9-7.21,26.78-.96,15.54,7.73,30.48,19.76,34.83,16.11,5.83,28.74,1.68,35.8-4.62,3.71-4.3,5.01-9.12,3.34-12.36-.53-1.03-1.07-1.9-1.62-2.66-5.95-8.29-12.57-1.22-20.28-.31-9.26,1.09-11.92-2.57-12.59-5.61-.39-1.78,1.2-3.38,3-3.1Zm6.17-25.95c4.67-.12,8.52,2.68,8.61,6.26.1,3.58-3.61,6.58-8.27,6.7-4.66.12-8.52-2.68-8.61-6.26-.09-3.58,3.61-6.58,8.27-6.7Z"/>
  <g>
    <path class="cls-3" d="m47.88,198.4c-.25,2.17-.33,4.38-.21,6.6.43,8.1,3.36,26.99,20.92,30.68.17-3.73.95-7.32,1.93-10.45-8.06-4.95-19.23-13.91-22.63-26.83Z"/>
    <path class="cls-3" d="m146.46,256.16c-11.44-2.85-21.19-12.02-26.82-22.76l-2.76,1.01c.14,2.82-.15,5.56-.85,8.17l2.34,2.5c11.45,12.24,24.71,18.71,38.36,18.71,11.5,0,22.99-4.73,32.83-13.4-7.12,4.86-16.93,8-26.27,8-5.23,0-10.9-.75-16.83-2.22Z"/>
    <path class="cls-3" d="m328.03,223.23c-6.74,6.98-17.33,11.36-27.76,11.5-.01,2.88-.35,6.06-1.29,9.17.05,0,.11,0,.17,0,25.68,0,37.37-18.92,37.37-36.49,0-.91-.04-1.81-.1-2.71-.58,7.04-3.43,13.39-8.39,18.53Z"/>
  </g>
  <path class="cls-4" d="m264.66,205.5c.44-3.78,1.06-11.37,3.98-18.66,1.22-3.05,2.86-6.04,5.04-8.68-3.39,3.15-5.72,7.09-7.34,11.14-2.92,7.29-3.54,14.88-3.98,18.66-.99,8.54-3.84,46.76,16.08,44.29,5.45-.68,8.9-2.97,11.03-5.94-2.09,1.74-4.92,3.01-8.74,3.49-19.92,2.47-17.07-35.75-16.08-44.29Z"/>
  <path class="cls-4" d="m149.61,246.34c-12.03-4.35-20.72-19.29-19.76-34.83.54-8.87,2.41-18.91,7.21-26.77.94-1.53,1.99-2.98,3.16-4.32-2.1,1.92-3.88,4.14-5.37,6.57-4.81,7.87-6.67,17.9-7.21,26.77-.95,15.54,7.73,30.48,19.76,34.83,17.97,6.5,31.6.59,38.02-6.86-7.06,6.29-19.69,10.44-35.8,4.61Z"/>
  <path class="cls-4" d="m216.65,246.34c-12.03-4.35-20.72-19.29-19.76-34.83.54-8.87,2.41-18.91,7.21-26.77.94-1.53,1.99-2.98,3.16-4.32-2.1,1.92-3.88,4.14-5.37,6.57-4.81,7.87-6.67,17.9-7.21,26.77-.95,15.54,7.73,30.48,19.76,34.83,17.97,6.5,31.6.59,38.02-6.86-7.06,6.29-19.69,10.44-35.8,4.61Z"/>
  <g>
    <path class="cls-11" d="m91.1,184.34c2.51-7.77,7.48-18.64,22.02-18.64.38,0,.76,0,1.15.02,8.36.34,14.87,4.73,17.99,12.07,6.85-7.92,16.35-12.15,28.07-12.15.84,0,1.69.02,2.57.06,12.35.61,24.54,6.92,31.05,16.07.35.49.68.98.99,1.48,7.04-11.32,18.39-17.58,33-17.58.53,0,1.07,0,1.61.02,12.65.38,24.56,6.2,31.09,15.18.26.35.49.71.73,1.07,0,0,0-.02.01-.03,4.83-9,12.2-14.76,21.6-17l-.08-.22c-8.52-24.3-27.78-37.68-54.23-37.68-3.53,0-7.22.24-10.96.73l-1.97.25-1.79-.86c-9.59-4.6-19.34-6.93-28.98-6.93-18.06,0-33.66,8.35-42.8,22.91l-2.63,4.19-4.78-1.28c-4.91-1.31-9.66-1.98-14.13-1.98-16.45,0-29.12,9.1-35.67,25.62l-.92,2.31c4.16,4.02,6.04,8.45,7.03,12.34Z"/>
    <path class="cls-2" d="m89.89,168.12c4.92-10.01,14.2-18.9,25.67-20.43,3.87-.49,7.81-.06,11.3,1.32.56.22.83.85.61,1.41-.16.41-.54.66-.95.68-6.86.35-12.99,2.07-18.7,5.69-2.77,1.72-5.4,3.76-7.98,5.98-2.6,2.21-5.1,4.62-7.82,6.97-1.09.97-2.79-.33-2.14-1.63h0Z"/>
    <path class="cls-2" d="m146.56,149.18c2.52-9.33,9.7-16.57,17.99-21.08,8.28-4.28,17.89-5.8,27.11-4.52,1.14.12,1.27,1.81.15,2.09-3.16.81-6.58,1.32-9.68,2.23-9.09,2.28-17.86,6.38-24.83,12.75-3.16,2.79-5.99,6.13-8.31,9.62-.8,1.24-2.82.34-2.42-1.08h0Z"/>
    <path class="cls-2" d="m229.16,133.31c18.87-4.24,38.28,7.7,47.03,24.16.57,1.04-.8,2.12-1.67,1.31-6.55-5.87-13.04-11.63-20.72-15.72-7.59-4.15-15.79-6.2-24.47-7.07-1.51-.15-1.65-2.36-.16-2.68h0Z"/>
  </g>
  <path class="cls-4" d="m80.26,242.16c-2.45-6.58-.15-14.54,1.48-18.79.03-.08.04-.16.07-.23-.6.22-1.22.54-1.79.88-.53.32-1.03.66-1.44.96-1.63,4.29-3.83,12.12-1.41,18.6,2.74,7.36,16.39,11.23,24.93,6.09-8.41,2.8-19.41-.98-21.84-7.51Z"/>
  <path class="cls-7" d="m54.49,192.42s0,0,0,0c.07.99.19,2,.41,3.04,2.47,11.42,13.43,19.59,20,23.58-2.86-3.66-7.77-8.21-12.12-12.74-5.71-5.94-8.29-13.88-8.29-13.88Z"/>
  <path class="cls-10" d="m107.97,218.42c2.81-2.06,7.04-5.39,11.63-9.84,8.17-7.92,12.62-34.52-5.69-35.26-19.65-.8-13.73,26.1-23.26,25.69-9.52-.41-2.47-12.82-12.24-21.86-3.64-3.36-8.33-3.97-12.59-2.57-6.47,2.13-11.94,8.92-11.33,17.84,0,0,0,0,0,0,0,0,2.59,7.94,8.29,13.88,4.34,4.52,9.26,9.08,12.12,12.74.77.46,1.48.88,2.11,1.22,1.6.89,2.3,2.82,1.64,4.53-.02.06-.05.13-.07.19.41-.3.91-.64,1.44-.96,0,0,0,0,0,0h0s0,0,0,0c.57-.34,1.18-.66,1.79-.88-.03.08-.04.16-.07.24-1.63,4.25-3.93,12.21-1.48,18.79,2.43,6.52,13.43,10.3,21.84,7.5,1.83-1.1,3.43-2.61,4.64-4.6,4.61-7.64,1.91-16.06-.3-20.68-1.01-2.09-.34-4.6,1.53-5.97Z"/>
  <g>
    <path class="cls-2" d="m69.11,182.1c-3.77,3.02-4.78,7.23-5.63,11.82-.28,1.23-1.51,1.99-2.73,1.71-.81-.19-1.42-.78-1.66-1.51-.98-3.1-.93-6.48.28-9.63.65-1.64,1.69-3.23,3.06-4.43,2-1.78,6.45-4.17,7.58-.49.22.98-.18,1.92-.9,2.52h0Z"/>
    <path class="cls-2" d="m152.51,181.33c-3.92,3.31-7.81,6.64-10.36,11.1-.83,1.44-1.51,2.98-2.1,4.63-.82,2.28-4.24,1.75-4.35-.64-.32-6.57,3.74-12.78,8.93-16.49,1.71-1.23,3.56-2.23,5.52-2.89,1.3-.44,2.71.26,3.15,1.56.34,1.01,0,2.08-.78,2.72h0Z"/>
    <path class="cls-2" d="m113.68,179.97c-2.52,1.37-5,3.19-6.49,5.65-.49.82-.84,1.71-1.07,2.69-.36,1.57-2.69,1.54-3.03-.01-1.14-5.75,4.29-11.22,9.83-11.64,1.92-.09,2.49,2.57.75,3.31h0Z"/>
    <path class="cls-2" d="m285.77,180.52c-3.92,3.31-7.81,6.64-10.36,11.1-.83,1.44-1.51,2.98-2.1,4.63-.82,2.28-4.24,1.75-4.35-.64-.32-6.57,3.74-12.78,8.93-16.49,1.71-1.23,3.56-2.23,5.52-2.89,1.3-.44,2.71.26,3.15,1.56.34,1.01,0,2.08-.78,2.72h0Z"/>
    <path class="cls-2" d="m169.68,228.37c2.05-2.03,5.03-2.93,7.86-2.34-2.05,2.04-5.03,2.92-7.86,2.34h0Z"/>
    <path class="cls-2" d="m219.55,181.33c-3.92,3.31-7.81,6.64-10.36,11.1-.83,1.44-1.51,2.98-2.1,4.63-.82,2.28-4.24,1.75-4.35-.64-.32-6.57,3.74-12.78,8.93-16.49,1.71-1.23,3.56-2.23,5.52-2.89,1.3-.44,2.71.26,3.15,1.56.34,1.01,0,2.08-.78,2.72h0Z"/>
    <path class="cls-2" d="m236.71,228.37c2.05-2.03,5.03-2.93,7.86-2.34-2.05,2.04-5.03,2.92-7.86,2.34h0Z"/>
  </g>
</svg>